<svg version="1" xmlns="http://www.w3.org/2000/svg" width="830.667" height="830.667" viewBox="0 0 623.000000 623.000000" preserveAspectRatio="xMidYMid meet"><g fill="#000" stroke="none"><path d="M285.8 26.9C261.6 51.1 91.1 220.5 29.4 281.7 13.8 297.2 1 310.3 1 310.8c0 .4 60.9 61.7 135.3 136 74.3 74.3 144 143.9 154.7 154.6 10.7 10.8 20 19.6 20.5 19.6.6 0 24.3-23.1 52.7-51.4l51.5-51.3-.1-49.1c-.1-27-.4-49.3-.7-49.6-.5-.5-37 36.2-90.7 91.1-6.7 6.9-12.5 12.4-12.7 12.2-.2-.2-48.1-48-106.4-106.2L99.1 311l3.3-3.3c1.9-1.7 49.8-49.3 106.5-105.7 56.7-56.4 103.5-102.6 103.9-102.8.7-.2 39.4 38.8 88.9 89.5 7.6 7.9 14.1 14.3 14.4 14.3.3 0 .7-21.9.8-48.8l.2-48.7-9.5-9.5c-34.2-34.3-95.4-95-95.7-94.9-.2.1-11.9 11.6-26.1 25.8zM468.5 207.1v48.1l27.8 27.7 27.7 27.6-28 28-28.1 28 .4 48.3c.3 26.6.6 48.5.9 48.7.6.6 152.3-151.5 152.1-152.5-.3-1-150.9-151.4-152.1-151.7-.4-.2-.7 21.4-.7 47.8z" stroke-width=".1"/></g></svg>