<?xml version="1.0" standalone="no"?>
<!DOCTYPE svg PUBLIC "-//W3C//DTD SVG 20010904//EN"
 "http://www.w3.org/TR/2001/REC-SVG-20010904/DTD/svg10.dtd">
<svg version="1.0" xmlns="http://www.w3.org/2000/svg"
 width="623.000000pt" height="623.000000pt" viewBox="0 0 623.000000 623.000000"
 preserveAspectRatio="xMidYMid meet">
<metadata>
Created by potrace 1.11, written by Peter Selinger 2001-2013
</metadata>
<g transform="translate(0.000000,623.000000) scale(0.100000,-0.100000)"
fill="#000000" stroke="none">
<path d="M2858 5961 c-242 -242 -1947 -1936 -2564 -2548 -156 -155 -284 -286
-284 -291 0 -4 609 -617 1353 -1360 743 -743 1440 -1439 1547 -1546 107 -108
200 -196 205 -196 6 0 243 231 527 514 l515 513 -1 491 c-1 270 -4 493 -7 496
-5 5 -370 -362 -907 -911 -67 -69 -125 -124 -127 -122 -2 2 -481 480 -1064
1062 l-1060 1057 33 33 c19 17 498 493 1065 1057 567 564 1035 1026 1039 1028
7 2 394 -388 889 -895 76 -79 141 -143 144 -143 3 0 7 219 8 488 l2 487 -95
95 c-342 343 -954 950 -957 949 -2 -1 -119 -116 -261 -258z"/>
<path d="M4685 4159 l0 -481 278 -277 277 -276 -280 -280 -281 -280 4 -483 c3
-266 6 -485 9 -487 6 -6 1523 1515 1521 1525 -3 10 -1509 1514 -1521 1517 -4
2 -7 -214 -7 -478z"/>
</g>
</svg>
